# xmcd CD database file
#
# Track frame offsets:
#	150
#	23087
#	48487
#
# Disc length: 842 seconds
#
# Revision: 0
# Processed by: cddbd v1.5.1PL0 Copyright (c) Steve Scherf et al.
# Submitted via: CDex 1.51
#
DISCID=1c034803
DTITLE=ROBOTS - Cloud Collector (Single)
DYEAR=2000
DGENRE=Rock
TTITLE0=Cloud Collector
TTITLE1=ジェット気流 (LIVE)
TTITLE2=Robot (LIVE)
EXTD=YEAR: 2000
EXTT0=
EXTT1=
EXTT2=
PLAYORDER=
